<svg xmlns="http://www.w3.org/2000/svg" xmlns:xlink="http://www.w3.org/1999/xlink" version="1.1" id="Layer_1" x="0px" y="0px" width="100px" height="100px" viewBox="5.0 -10.0 100.0 135.0" enable-background="new 0 0 100 100" xml:space="preserve">
<path d="M50,11.026c-21.525,0-38.974,17.449-38.974,38.974c0,12.283,5.688,23.232,14.567,30.376l-14.567,8.599H50  c21.525,0,38.975-17.449,38.975-38.975C88.975,28.475,71.523,11.026,50,11.026z M49.999,85.507H23.961l8.242-4.786  C21.617,74.574,14.493,63.123,14.493,50c0-19.61,15.896-35.506,35.506-35.506c19.61,0,35.507,15.896,35.507,35.506  C85.506,69.609,69.609,85.507,49.999,85.507z M52.988,50c0,1.55-1.257,2.808-2.808,2.808S47.372,51.55,47.372,50  c0-1.551,1.257-2.809,2.809-2.809S52.988,48.449,52.988,50z M66.933,50.012c0.905-0.955,1.655-1.91,2.24-2.845  c0.082,0.013,0.163,0.025,0.248,0.025c0.891,0,1.611-0.721,1.611-1.611c0-0.507-0.239-0.954-0.605-1.249  c0.285-1.173,0.236-2.274-0.202-3.257c-1.011-2.273-3.937-3.525-8.236-3.525c-1.232,0-2.542,0.108-3.902,0.302  c-1.671-5.941-4.56-9.794-7.906-9.794c-3.348,0-6.234,3.853-7.907,9.794c-1.359-0.193-2.668-0.301-3.9-0.301  c-3.296,0-5.781,0.737-7.219,2.104c-0.179-0.068-0.372-0.11-0.575-0.11c-0.89,0-1.611,0.721-1.611,1.611  c0,0.592,0.323,1.104,0.8,1.384c-0.175,2.217,1.166,4.836,3.648,7.46c-3.056,3.228-4.381,6.451-3.281,8.924  c1.013,2.272,3.938,3.524,8.238,3.524c1.232,0,2.542-0.106,3.9-0.3c1.673,5.939,4.56,9.794,7.907,9.794  c1.056,0,2.067-0.387,3.007-1.098c0.226,0.119,0.479,0.193,0.753,0.193c0.889,0,1.611-0.722,1.611-1.61  c0-0.324-0.099-0.625-0.263-0.878c1.119-1.647,2.073-3.826,2.797-6.401c1.36,0.193,2.67,0.3,3.902,0.3  c4.3,0,7.225-1.252,8.236-3.524c1.058-2.374-0.098-5.525-3.253-8.871C66.959,50.04,66.945,50.025,66.933,50.012z M61.988,38.505  c3.899,0,6.516,1.051,7.364,2.959c0.333,0.747,0.375,1.598,0.167,2.516c-0.034-0.002-0.065-0.01-0.099-0.01  c-0.889,0-1.611,0.721-1.611,1.611c0,0.448,0.185,0.852,0.479,1.144c-0.541,0.841-1.231,1.706-2.059,2.578  c-1.883-1.838-4.249-3.609-6.941-5.209c-0.219-1.89-0.54-3.67-0.952-5.309C59.618,38.604,60.846,38.505,61.988,38.505z   M59.413,45.287c2.373,1.462,4.454,3.056,6.142,4.704c-1.65,1.608-3.737,3.216-6.141,4.709c0.137-1.511,0.21-3.081,0.21-4.7  C59.624,48.377,59.55,46.802,59.413,45.287z M58.669,50c0,1.831-0.103,3.616-0.29,5.323c-1.484,0.867-3.072,1.687-4.745,2.431  c-1.146,0.511-2.302,0.964-3.454,1.377c-1.152-0.413-2.307-0.866-3.451-1.376c-1.674-0.745-3.264-1.564-4.747-2.43  c-0.189-1.709-0.291-3.494-0.291-5.325c0-1.832,0.102-3.617,0.291-5.325c1.482-0.867,3.072-1.686,4.746-2.431  c1.146-0.51,2.301-0.963,3.453-1.376c1.153,0.413,2.307,0.866,3.454,1.376c1.665,0.742,3.249,1.562,4.745,2.43  C58.566,46.382,58.669,48.167,58.669,50z M58.229,43.482c-1.339-0.75-2.745-1.458-4.208-2.11c-0.803-0.357-1.603-0.683-2.401-0.992  c1.964-0.635,3.894-1.118,5.73-1.434C57.713,40.36,58.011,41.881,58.229,43.482z M50.18,29.013c2.815,0,5.362,3.601,6.916,8.999  c-2.212,0.382-4.541,0.996-6.916,1.834c-2.375-0.838-4.704-1.452-6.916-1.834C44.819,32.614,47.365,29.013,50.18,29.013z   M43.01,38.947c1.836,0.314,3.766,0.797,5.73,1.433c-0.8,0.309-1.6,0.635-2.402,0.992c-1.479,0.658-2.884,1.365-4.207,2.104  C42.351,41.877,42.647,40.358,43.01,38.947z M30.716,42.753c0.824-0.071,1.474-0.755,1.474-1.597c0-0.336-0.104-0.647-0.279-0.906  c1.268-1.134,3.49-1.745,6.461-1.745c1.143,0,2.371,0.099,3.652,0.279c-0.411,1.636-0.732,3.414-0.952,5.3  c-2.76,1.635-5.117,3.412-6.955,5.204C31.896,46.943,30.642,44.64,30.716,42.753z M40.947,54.7c-2.399-1.489-4.484-3.096-6.131-4.7  c1.647-1.606,3.732-3.211,6.131-4.7c-0.137,1.51-0.21,3.081-0.21,4.7C40.736,51.619,40.81,53.189,40.947,54.7z M38.373,61.494  c-3.9,0-6.516-1.051-7.365-2.958c-0.919-2.064,0.352-4.912,3.11-7.825c1.838,1.793,4.195,3.569,6.956,5.203  c0.219,1.888,0.54,3.664,0.951,5.301C40.743,61.396,39.515,61.494,38.373,61.494z M42.131,56.523  c1.325,0.74,2.729,1.446,4.207,2.104c0.801,0.356,1.602,0.683,2.4,0.992c-1.963,0.635-3.893,1.118-5.729,1.432  C42.647,59.641,42.351,58.123,42.131,56.523z M54.52,67.929c-0.18-0.07-0.374-0.112-0.579-0.112c-0.891,0-1.611,0.721-1.611,1.611  c0,0.258,0.066,0.498,0.175,0.714c-0.742,0.543-1.521,0.846-2.324,0.846c-2.815,0-5.362-3.602-6.916-9.001  c2.211-0.381,4.541-0.995,6.915-1.832c2.376,0.837,4.705,1.451,6.917,1.832C56.409,64.369,55.529,66.4,54.52,67.929z M57.351,61.052  c-1.837-0.313-3.767-0.797-5.73-1.432c0.799-0.31,1.599-0.636,2.401-0.992c1.479-0.659,2.883-1.365,4.207-2.104  C58.009,58.123,57.713,59.641,57.351,61.052z M69.352,58.536c-0.848,1.908-3.464,2.958-7.363,2.958c-1.143,0-2.37-0.099-3.652-0.279  c0.411-1.637,0.732-3.414,0.951-5.301c2.771-1.64,5.133-3.423,6.974-5.223c0.005,0.007,0.013,0.013,0.017,0.017  C69.109,53.711,70.229,56.564,69.352,58.536z"/>
<text x="0.0" y="117.5" font-size="5.0" font-weight="bold" font-family="Helvetica Neue, Helvetica, Arial-Unicode, Arial, Sans-serif" fill="#000000">Created by Christopher Holm-Hansen</text><text x="0.0" y="122.5" font-size="5.0" font-weight="bold" font-family="Helvetica Neue, Helvetica, Arial-Unicode, Arial, Sans-serif" fill="#000000">from the Noun Project</text></svg>